<?xml version="1.0" standalone="no"?>
<!DOCTYPE svg PUBLIC "-//W3C//DTD SVG 20010904//EN"
 "http://www.w3.org/TR/2001/REC-SVG-20010904/DTD/svg10.dtd">
<svg version="1.0" xmlns="http://www.w3.org/2000/svg"
 width="1247.000000pt" height="434.000000pt" viewBox="0 0 1247.000000 434.000000"
 preserveAspectRatio="xMidYMid meet">
<metadata>
Created by potrace 1.16, written by Peter Selinger 2001-2019
</metadata>
<g transform="translate(0.000000,434.000000) scale(0.100000,-0.100000)"
fill="#000000" stroke="none">
<path d="M2505 3801 c-264 -47 -473 -156 -661 -345 -183 -183 -284 -370 -341
-628 -25 -115 -25 -369 1 -486 54 -254 173 -470 350 -640 179 -172 376 -276
621 -327 108 -23 370 -24 475 -1 507 110 871 475 976 978 18 86 25 339 11 408
l-7 35 -483 -3 -484 -2 -81 -200 -80 -200 324 0 c184 0 324 -4 324 -9 0 -26
-66 -164 -106 -223 -213 -312 -613 -423 -951 -263 -209 98 -347 260 -419 491
-15 46 -19 90 -18 204 0 131 3 153 28 225 83 244 263 422 503 501 80 26 100
29 228 29 132 -1 146 -3 234 -33 120 -42 196 -88 287 -175 l73 -68 185 138
c101 76 185 141 185 144 1 4 -31 41 -70 83 -275 294 -706 437 -1104 367z"/>
<path d="M4138 2585 l2 -1235 245 0 245 0 0 1235 0 1235 -247 0 -248 0 3
-1235z"/>
<path d="M4820 3615 l0 -205 295 0 295 0 0 -1030 0 -1030 250 0 250 0 0 1030
0 1030 295 0 295 0 0 205 0 205 -840 0 -840 0 0 -205z"/>
<path d="M6680 2585 l0 -1235 840 0 840 0 0 205 0 205 -590 0 -590 0 0 315 0
315 590 0 590 0 0 200 0 200 -590 0 -590 0 0 310 0 310 590 0 590 0 0 205 0
205 -840 0 -840 0 0 -1235z"/>
<path d="M9565 3800 c-742 -135 -1191 -891 -953 -1605 63 -189 149 -326 298
-476 169 -171 341 -270 578 -331 106 -27 133 -30 282 -31 122 0 187 4 248 17
502 106 869 471 977 974 l7 32 -227 -2 -227 -3 -23 -62 c-64 -178 -216 -348
-385 -433 -318 -159 -684 -93 -934 168 -321 335 -276 880 96 1165 263 201 598
220 893 49 33 -19 98 -74 145 -121 89 -90 146 -176 182 -273 l21 -58 227 0
228 0 -9 39 c-67 297 -246 570 -489 743 -265 189 -614 267 -935 208z"/>
<path d="M9680 2911 c-84 -26 -168 -98 -211 -181 -20 -38 -24 -60 -24 -145 0
-89 3 -106 27 -150 32 -62 103 -129 166 -158 37 -17 66 -22 137 -22 78 0 97 4
146 28 66 32 132 99 162 165 17 37 22 66 22 137 0 78 -4 97 -28 146 -58 118
-174 190 -305 188 -37 0 -78 -4 -92 -8z"/>
<path d="M1646 945 c-93 -34 -138 -102 -138 -209 1 -103 48 -173 135 -202 124
-41 248 35 264 164 l6 52 -101 0 c-88 0 -100 -2 -98 -17 2 -14 14 -16 74 -14
l72 2 0 -27 c0 -61 -82 -134 -151 -134 -47 0 -112 42 -136 89 -40 76 -29 158
30 219 56 58 147 63 203 11 20 -18 26 -20 39 -9 14 12 14 15 -2 32 -43 48
-133 67 -197 43z"/>
<path d="M3301 865 c3 -63 1 -85 -8 -85 -7 0 -13 4 -13 8 0 14 -48 32 -86 32
-53 0 -93 -26 -115 -73 -59 -131 43 -264 165 -213 20 8 36 20 36 25 0 6 7 11
16 11 11 0 14 -6 9 -20 -5 -16 -2 -20 14 -20 20 0 20 7 23 210 l3 210 -24 0
c-23 0 -23 -1 -20 -85z m-51 -90 c39 -20 50 -43 50 -105 0 -44 -5 -56 -29 -81
-49 -48 -125 -38 -156 21 -40 77 9 177 88 179 10 1 31 -6 47 -14z"/>
<path d="M3910 740 c0 -203 1 -210 20 -210 19 0 20 7 20 210 0 203 -1 210 -20
210 -19 0 -20 -7 -20 -210z"/>
<path d="M8320 741 l0 -211 25 0 c25 0 25 1 25 80 l0 80 38 0 c110 1 172 46
172 126 0 56 -20 96 -57 114 -15 7 -67 15 -115 18 l-88 4 0 -211z m197 135
c12 -15 23 -40 23 -56 0 -16 -11 -41 -23 -56 -20 -23 -34 -28 -85 -32 l-62 -4
0 92 0 92 62 -4 c51 -4 65 -9 85 -32z"/>
<path d="M6490 865 c0 -38 -3 -45 -20 -45 -13 0 -20 -7 -20 -20 0 -13 7 -20
20 -20 19 0 20 -7 20 -113 0 -125 5 -137 57 -137 38 0 47 27 11 32 -22 3 -23
8 -26 111 l-3 107 26 0 c34 0 31 33 -3 38 -19 3 -22 9 -22 48 0 37 -3 44 -20
44 -17 0 -20 -7 -20 -45z"/>
<path d="M9620 865 c0 -38 -3 -45 -20 -45 -13 0 -20 -7 -20 -20 0 -13 7 -20
20 -20 19 0 20 -7 20 -119 0 -130 1 -131 61 -131 33 0 36 22 4 30 -18 5 -20
16 -23 113 l-3 107 26 0 c27 0 28 1 19 24 -3 9 -15 16 -25 16 -16 0 -19 8 -19
45 0 38 -3 45 -20 45 -17 0 -20 -7 -20 -45z"/>
<path d="M2171 802 c-87 -44 -96 -187 -15 -251 39 -31 87 -36 139 -16 83 31
116 120 77 207 -32 73 -124 100 -201 60z m147 -46 c18 -17 26 -39 30 -75 4
-47 2 -53 -31 -86 -78 -78 -189 -18 -174 96 12 92 112 129 175 65z"/>
<path d="M2651 802 c-66 -33 -93 -141 -51 -209 77 -127 270 -69 270 82 0 112
-117 180 -219 127z m147 -46 c18 -17 26 -39 30 -75 4 -47 2 -53 -31 -86 -81
-81 -193 -16 -174 102 14 87 114 121 175 59z"/>
<path d="M4190 675 c0 -138 1 -145 20 -145 19 0 20 7 20 105 0 102 1 107 26
130 32 30 74 32 97 7 14 -15 17 -40 17 -130 0 -105 1 -112 20 -112 19 0 20 7
20 120 0 115 -1 122 -25 145 -31 32 -85 33 -126 4 l-29 -20 0 20 c0 14 -6 21
-20 21 -19 0 -20 -7 -20 -145z"/>
<path d="M4650 673 c0 -130 2 -143 18 -143 15 0 17 12 17 106 0 103 1 106 28
130 34 29 70 31 97 4 18 -18 20 -33 20 -130 0 -105 1 -110 21 -110 20 0 21 3
18 126 -4 118 -5 127 -28 145 -31 25 -91 25 -124 -1 -31 -25 -37 -25 -37 -2 0
10 -7 19 -15 19 -13 0 -15 -23 -15 -144z"/>
<path d="M5142 800 c-81 -49 -82 -194 -2 -252 66 -49 172 -23 209 51 26 51 27
93 1 147 -35 71 -136 98 -208 54z m122 -20 c71 -26 86 -139 27 -192 -73 -66
-171 -14 -171 90 0 79 72 130 144 102z"/>
<path d="M5543 808 c2 -7 26 -73 53 -145 42 -116 51 -133 70 -133 23 0 26 6
108 222 l25 68 -22 -4 c-18 -2 -29 -23 -62 -110 -22 -58 -44 -105 -49 -103 -5
2 -15 21 -23 43 -47 137 -65 174 -85 174 -12 0 -18 -5 -15 -12z"/>
<path d="M6040 807 c-43 -22 -70 -73 -70 -136 0 -69 23 -111 75 -135 48 -23
99 -16 135 19 33 31 38 31 32 0 -3 -20 0 -25 17 -25 20 0 21 4 21 143 0 136
-1 143 -20 144 -15 1 -20 -4 -20 -24 l0 -25 -31 26 c-34 29 -96 35 -139 13z
m120 -34 c50 -29 66 -104 35 -163 -18 -35 -43 -50 -85 -50 -42 0 -67 15 -86
52 -25 48 -14 115 25 150 36 32 70 35 111 11z"/>
<path d="M7103 801 c-43 -27 -63 -69 -63 -135 0 -48 4 -60 31 -91 61 -69 157
-70 217 -1 54 62 51 155 -8 211 -40 39 -128 47 -177 16z m134 -31 c91 -55 49
-210 -57 -210 -95 0 -139 118 -72 194 36 39 82 45 129 16z"/>
<path d="M7540 675 c0 -138 1 -145 20 -145 19 0 20 7 20 105 0 99 2 107 25
130 28 29 61 32 93 9 21 -14 22 -23 22 -130 0 -107 1 -114 20 -114 19 0 20 7
20 120 0 115 -1 122 -25 145 -31 32 -91 34 -129 4 l-26 -20 0 20 c0 14 -6 21
-20 21 -19 0 -20 -7 -20 -145z"/>
<path d="M8827 802 c-43 -26 -71 -93 -63 -150 8 -58 31 -91 80 -116 46 -23 98
-15 133 20 30 30 33 30 33 -1 0 -18 5 -25 20 -25 19 0 20 7 20 145 0 138 -1
145 -20 145 -15 0 -20 -7 -20 -25 l0 -24 -36 24 c-44 30 -106 33 -147 7z m142
-38 c78 -66 33 -204 -67 -204 -32 0 -45 6 -65 30 -37 44 -42 81 -18 135 30 68
95 86 150 39z"/>
<path d="M9910 675 c0 -138 1 -145 20 -145 19 0 20 7 20 101 0 98 1 101 29
130 35 34 70 37 97 8 16 -18 19 -37 19 -130 0 -97 2 -109 18 -109 15 0 17 13
17 125 0 115 -2 126 -22 145 -30 27 -98 28 -123 0 -10 -11 -22 -20 -27 -20 -4
0 -8 9 -8 20 0 13 -7 20 -20 20 -19 0 -20 -7 -20 -145z"/>
<path d="M10424 810 c-48 -19 -87 -100 -77 -162 11 -71 75 -128 145 -128 31 0
105 38 112 57 11 29 -16 33 -47 7 -42 -35 -99 -33 -138 5 -16 16 -29 39 -29
50 0 20 5 21 120 21 l120 0 0 30 c0 74 -62 130 -140 129 -25 0 -55 -4 -66 -9z
m116 -37 c33 -23 49 -44 50 -65 0 -16 -11 -18 -100 -18 -84 0 -100 2 -100 16
0 64 94 106 150 67z"/>
<path d="M10847 813 c-4 -3 -7 -69 -7 -145 0 -131 1 -138 20 -138 19 0 20 7
20 94 0 87 2 97 26 125 16 19 35 31 50 31 17 0 24 6 24 20 0 15 -7 20 -25 20
-14 0 -33 -9 -42 -20 -10 -11 -21 -20 -25 -20 -5 0 -8 9 -8 20 0 19 -20 27
-33 13z"/>
</g>
</svg>
